<?xml version="1.0" encoding="utf-8" standalone="yes"?> <svg width="1015" height="1015" viewBox="-1 -1 35 35" xmlns="http://www.w3.org/2000/svg" xmlns:xlink="http://www.w3.org/1999/xlink" shape-rendering="crispEdges" id="qr code"><rect id="qr background" fill-opacity="1" fill="rgb(255, 255, 255)" x="-1" y="-1" width="35" height="35"></rect><path fill-opacity="1" fill="rgb(0, 0, 0)" id="qr dark pixels" fill-rule="evenodd" d="M 8 0 L 11 0 L 11 2 L 12 2 L 12 4 L 11 4 L 11 3 L 10 3 L 10 2 L 9 2 L 9 3 L 10 3 L 10 4 L 8 4 z M 12 0 L 13 0 L 13 1 L 12 1 z M 17 0 L 19 0 L 19 1 L 17 1 z M 20 0 L 21 0 L 21 2 L 20 2 L 20 3 L 19 3 L 19 4 L 17 4 L 17 5 L 16 5 L 16 4 L 15 4 L 15 5 L 16 5 L 16 6 L 15 6 L 15 8 L 17 8 L 17 9 L 13 9 L 13 8 L 14 8 L 14 6 L 13 6 L 13 8 L 12 8 L 12 6 L 11 6 L 11 5 L 13 5 L 13 4 L 14 4 L 14 3 L 15 3 L 15 2 L 16 2 L 16 1 L 17 1 L 17 2 L 19 2 L 19 1 L 20 1 z M 22 0 L 24 0 L 24 1 L 23 1 L 23 2 L 22 2 z M 24 1 L 25 1 L 25 2 L 24 2 z M 13 2 L 14 2 L 14 3 L 13 3 z M 21 2 L 22 2 L 22 3 L 21 3 z M 23 2 L 24 2 L 24 3 L 23 3 z M 20 3 L 21 3 L 21 4 L 20 4 z M 19 4 L 20 4 L 20 6 L 19 6 L 19 7 L 18 7 L 18 6 L 17 6 L 17 5 L 19 5 z M 23 4 L 24 4 L 24 5 L 23 5 z M 8 5 L 9 5 L 9 7 L 8 7 z M 21 5 L 22 5 L 22 6 L 21 6 z M 24 5 L 25 5 L 25 8 L 22 8 L 22 10 L 21 10 L 21 9 L 20 9 L 20 10 L 19 10 L 19 11 L 20 11 L 20 12 L 21 12 L 21 11 L 23 11 L 23 9 L 24 9 L 24 10 L 25 10 L 25 9 L 26 9 L 26 11 L 24 11 L 24 12 L 25 12 L 25 13 L 24 13 L 24 14 L 25 14 L 25 15 L 26 15 L 26 16 L 25 16 L 25 17 L 24 17 L 24 15 L 22 15 L 22 16 L 23 16 L 23 17 L 22 17 L 22 18 L 21 18 L 21 19 L 22 19 L 22 22 L 21 22 L 21 21 L 20 21 L 20 22 L 18 22 L 18 21 L 19 21 L 19 20 L 20 20 L 20 14 L 21 14 L 21 13 L 20 13 L 20 14 L 19 14 L 19 12 L 15 12 L 15 11 L 14 11 L 14 13 L 15 13 L 15 14 L 13 14 L 13 13 L 12 13 L 12 12 L 13 12 L 13 11 L 12 11 L 12 12 L 11 12 L 11 13 L 10 13 L 10 11 L 11 11 L 11 10 L 12 10 L 12 9 L 13 9 L 13 10 L 16 10 L 16 11 L 17 11 L 17 10 L 18 10 L 18 9 L 19 9 L 19 8 L 21 8 L 21 7 L 22 7 L 22 6 L 23 6 L 23 7 L 24 7 zM 22 13 L 23 13 L 23 14 L 22 14 z M 10 6 L 11 6 L 11 7 L 10 7 z M 16 6 L 17 6 L 17 7 L 16 7 z M 20 6 L 21 6 L 21 7 L 20 7 z M 9 7 L 10 7 L 10 8 L 9 8 z M 17 7 L 18 7 L 18 8 L 17 8 z M 0 8 L 2 8 L 2 9 L 4 9 L 4 8 L 7 8 L 7 9 L 5 9 L 5 10 L 1 10 L 1 9 L 0 9 z M 11 8 L 12 8 L 12 9 L 11 9 z M 27 8 L 28 8 L 28 10 L 27 10 z M 29 8 L 33 8 L 33 9 L 31 9 L 31 10 L 32 10 L 32 11 L 30 11 L 30 9 L 29 9 z M 7 9 L 8 9 L 8 10 L 9 10 L 9 11 L 8 11 L 8 12 L 9 12 L 9 13 L 10 13 L 10 14 L 9 14 L 9 15 L 8 15 L 8 17 L 10 17 L 10 19 L 8 19 L 8 18 L 7 18 L 7 17 L 6 17 L 6 18 L 5 18 L 5 19 L 6 19 L 6 20 L 7 20 L 7 19 L 8 19 L 8 21 L 4 21 L 4 20 L 3 20 L 3 21 L 1 21 L 1 22 L 0 22 L 0 19 L 4 19 L 4 18 L 3 18 L 3 17 L 4 17 L 4 16 L 7 16 L 7 15 L 5 15 L 5 14 L 4 14 L 4 13 L 6 13 L 6 14 L 8 14 L 8 13 L 6 13 L 6 12 L 7 12 L 7 11 L 6 11 L 6 10 L 7 10 z M 9 9 L 11 9 L 11 10 L 9 10 z M 0 10 L 1 10 L 1 12 L 0 12 z M 28 10 L 29 10 L 29 11 L 28 11 z M 2 11 L 4 11 L 4 13 L 2 13 z M 5 11 L 6 11 L 6 12 L 5 12 z M 29 11 L 30 11 L 30 13 L 28 13 L 28 12 L 29 12 z M 26 12 L 27 12 L 27 13 L 26 13 z M 31 12 L 33 12 L 33 13 L 31 13 z M 1 13 L 2 13 L 2 14 L 3 14 L 3 16 L 2 16 L 2 15 L 1 15 z M 16 13 L 17 13 L 17 15 L 16 15 z M 25 13 L 26 13 L 26 14 L 25 14 z M 10 14 L 11 14 L 11 16 L 12 16 L 12 17 L 10 17 z M 26 14 L 32 14 L 32 15 L 30 15 L 30 16 L 29 16 L 29 17 L 28 17 L 28 18 L 27 18 L 27 17 L 26 17 L 26 16 L 28 16 L 28 15 L 26 15 z M 12 15 L 13 15 L 13 16 L 12 16 z M 14 15 L 15 15 L 15 16 L 16 16 L 16 17 L 13 17 L 13 16 L 14 16 z M 17 15 L 19 15 L 19 16 L 17 16 z M 0 16 L 1 16 L 1 18 L 0 18 z M 32 16 L 33 16 L 33 17 L 32 17 z M 12 17 L 13 17 L 13 18 L 16 18 L 16 19 L 14 19 L 14 21 L 15 21 L 15 20 L 16 20 L 16 22 L 18 22 L 18 23 L 20 23 L 20 24 L 21 24 L 21 25 L 20 25 L 20 26 L 19 26 L 19 24 L 17 24 L 17 23 L 16 23 L 16 24 L 15 24 L 15 25 L 13 25 L 13 24 L 14 24 L 14 23 L 15 23 L 15 22 L 13 22 L 13 21 L 12 21 L 12 20 L 13 20 L 13 19 L 12 19 L 12 20 L 11 20 L 11 21 L 10 21 L 10 22 L 11 22 L 11 23 L 9 23 L 9 22 L 8 22 L 8 21 L 9 21 L 9 20 L 10 20 L 10 19 L 11 19 L 11 18 L 12 18 z M 23 17 L 24 17 L 24 19 L 23 19 z M 25 17 L 26 17 L 26 19 L 30 19 L 30 20 L 29 20 L 29 21 L 28 21 L 28 20 L 27 20 L 27 21 L 26 21 L 26 20 L 25 20 L 25 21 L 26 21 L 26 22 L 24 22 L 24 23 L 26 23 L 26 24 L 24 24 L 24 25 L 23 25 L 23 28 L 22 28 L 22 32 L 21 32 L 21 31 L 20 31 L 20 30 L 21 30 L 21 28 L 20 28 L 20 26 L 22 26 L 22 24 L 23 24 L 23 20 L 24 20 L 24 19 L 25 19 z M 29 17 L 30 17 L 30 18 L 29 18 z M 6 18 L 7 18 L 7 19 L 6 19 z M 17 18 L 19 18 L 19 19 L 18 19 L 18 20 L 17 20 z M 30 18 L 32 18 L 32 19 L 30 19 z M 32 20 L 33 20 L 33 21 L 32 21 z M 3 21 L 4 21 L 4 22 L 3 22 z M 27 21 L 28 21 L 28 22 L 27 22 z M 29 21 L 30 21 L 30 22 L 29 22 z M 4 22 L 5 22 L 5 25 L 4 25 L 4 24 L 3 24 L 3 23 L 4 23 z M 6 22 L 7 22 L 7 23 L 6 23 z M 26 22 L 27 22 L 27 23 L 26 23 z M 28 22 L 29 22 L 29 24 L 27 24 L 27 23 L 28 23 z M 30 22 L 32 22 L 32 23 L 30 23 z M 12 23 L 13 23 L 13 24 L 12 24 z M 21 23 L 22 23 L 22 24 L 21 24 z M 0 24 L 3 24 L 3 25 L 0 25 z M 6 24 L 9 24 L 9 26 L 8 26 L 8 25 L 6 25 z M 11 24 L 12 24 L 12 25 L 11 25 z M 16 24 L 17 24 L 17 26 L 19 26 L 19 28 L 17 28 L 17 27 L 14 27 L 14 29 L 15 29 L 15 30 L 13 30 L 13 29 L 12 29 L 12 28 L 13 28 L 13 27 L 12 27 L 12 28 L 11 28 L 11 32 L 12 32 L 12 33 L 8 33 L 8 31 L 9 31 L 9 32 L 10 32 L 10 30 L 9 30 L 9 29 L 8 29 L 8 27 L 9 27 L 9 28 L 10 28 L 10 27 L 11 27 L 11 26 L 12 26 L 12 25 L 13 25 L 13 26 L 16 26 z M 31 24 L 32 24 L 32 27 L 33 27 L 33 29 L 32 29 L 32 28 L 31 28 z M 10 25 L 11 25 L 11 26 L 10 26 z M 15 28 L 16 28 L 16 29 L 15 29 z M 19 28 L 20 28 L 20 30 L 19 30 z M 16 29 L 17 29 L 17 30 L 16 30 z M 23 29 L 25 29 L 25 30 L 24 30 L 24 31 L 25 31 L 25 30 L 26 30 L 26 29 L 27 29 L 27 31 L 26 31 L 26 32 L 27 32 L 27 33 L 22 33 L 22 32 L 23 32 z M 28 29 L 30 29 L 30 30 L 29 30 L 29 32 L 27 32 L 27 31 L 28 31 z M 15 30 L 16 30 L 16 31 L 18 31 L 18 32 L 15 32 L 15 33 L 13 33 L 13 32 L 14 32 L 14 31 L 15 31 z M 12 31 L 13 31 L 13 32 L 12 32 z M 19 31 L 20 31 L 20 32 L 21 32 L 21 33 L 19 33 z M 29 32 L 30 32 L 30 33 L 29 33 z M 32 32 L 33 32 L 33 33 L 32 33 z"></path><path id="qr squares" d="M0,0h7h0v0v7v0h0h-7h0v0v-7v0h0zM1,1h5h0v0v5v0h0h-5h0v0v-5v0h0zM2,2h3h0v0v3v0h0h-3h0v0v-3v0h0z M26,0h7h0v0v7v0h0h-7h0v0v-7v0h0zM27,1h5h0v0v5v0h0h-5h0v0v-5v0h0zM28,2h3h0v0v3v0h0h-3h0v0v-3v0h0z M0,26h7h0v0v7v0h0h-7h0v0v-7v0h0zM1,27h5h0v0v5v0h0h-5h0v0v-5v0h0zM2,28h3h0v0v3v0h0h-3h0v0v-3v0h0zM24,24h5h0v0v5v0h0h-5h0v0v-5v0h0zM25,25h3h0v0v3v0h0h-3h0v0v-3v0h0zM26,26h1h0v0v1v0h0h-1h0v0v-1v0h0z" fill-rule="evenodd" fill-opacity="1" fill="rgb(0, 0, 0)"></path></svg>